<svg xmlns="http://www.w3.org/2000/svg" viewBox="0 0 640 160" role="img" aria-label="Cygnus logo lockup"><title>Cygnus logo lockup</title><g transform="translate(0 0)"><circle cx="80.0" cy="80.0" r="70.40" fill="none" stroke="#14171c" stroke-width="2.24"/><line x1="141.95" y1="80.00" x2="157.44" y2="80.00" stroke="#14171c" stroke-width="2.24" stroke-linecap="round"/><line x1="80.00" y1="141.95" x2="80.00" y2="157.44" stroke="#14171c" stroke-width="2.24" stroke-linecap="round"/><line x1="18.05" y1="80.00" x2="2.56" y2="80.00" stroke="#14171c" stroke-width="2.24" stroke-linecap="round"/><line x1="80.00" y1="18.05" x2="80.00" y2="2.56" stroke="#14171c" stroke-width="2.24" stroke-linecap="round"/><line x1="149.33" y1="92.22" x2="146.21" y2="91.67" stroke="#14171c" stroke-width="1.34" opacity=".6"/><line x1="146.15" y1="104.08" x2="143.18" y2="102.99" stroke="#14171c" stroke-width="1.34" opacity=".6"/><line x1="140.97" y1="115.20" x2="138.22" y2="113.62" stroke="#14171c" stroke-width="1.34" opacity=".6"/><line x1="133.93" y1="125.25" x2="131.50" y2="123.22" stroke="#14171c" stroke-width="1.34" opacity=".6"/><line x1="125.25" y1="133.93" x2="123.22" y2="131.50" stroke="#14171c" stroke-width="1.34" opacity=".6"/><line x1="115.20" y1="140.97" x2="113.62" y2="138.22" stroke="#14171c" stroke-width="1.34" opacity=".6"/><line x1="104.08" y1="146.15" x2="102.99" y2="143.18" stroke="#14171c" stroke-width="1.34" opacity=".6"/><line x1="92.22" y1="149.33" x2="91.67" y2="146.21" stroke="#14171c" stroke-width="1.34" opacity=".6"/><line x1="67.78" y1="149.33" x2="68.33" y2="146.21" stroke="#14171c" stroke-width="1.34" opacity=".6"/><line x1="55.92" y1="146.15" x2="57.01" y2="143.18" stroke="#14171c" stroke-width="1.34" opacity=".6"/><line x1="44.80" y1="140.97" x2="46.38" y2="138.22" stroke="#14171c" stroke-width="1.34" opacity=".6"/><line x1="34.75" y1="133.93" x2="36.78" y2="131.50" stroke="#14171c" stroke-width="1.34" opacity=".6"/><line x1="26.07" y1="125.25" x2="28.50" y2="123.22" stroke="#14171c" stroke-width="1.34" opacity=".6"/><line x1="19.03" y1="115.20" x2="21.78" y2="113.62" stroke="#14171c" stroke-width="1.34" opacity=".6"/><line x1="13.85" y1="104.08" x2="16.82" y2="102.99" stroke="#14171c" stroke-width="1.34" opacity=".6"/><line x1="10.67" y1="92.22" x2="13.79" y2="91.67" stroke="#14171c" stroke-width="1.34" opacity=".6"/><line x1="10.67" y1="67.78" x2="13.79" y2="68.33" stroke="#14171c" stroke-width="1.34" opacity=".6"/><line x1="13.85" y1="55.92" x2="16.82" y2="57.01" stroke="#14171c" stroke-width="1.34" opacity=".6"/><line x1="19.03" y1="44.80" x2="21.78" y2="46.38" stroke="#14171c" stroke-width="1.34" opacity=".6"/><line x1="26.07" y1="34.75" x2="28.50" y2="36.78" stroke="#14171c" stroke-width="1.34" opacity=".6"/><line x1="34.75" y1="26.07" x2="36.78" y2="28.50" stroke="#14171c" stroke-width="1.34" opacity=".6"/><line x1="44.80" y1="19.03" x2="46.38" y2="21.78" stroke="#14171c" stroke-width="1.34" opacity=".6"/><line x1="55.92" y1="13.85" x2="57.01" y2="16.82" stroke="#14171c" stroke-width="1.34" opacity=".6"/><line x1="67.78" y1="10.67" x2="68.33" y2="13.79" stroke="#14171c" stroke-width="1.34" opacity=".6"/><line x1="92.22" y1="10.67" x2="91.67" y2="13.79" stroke="#14171c" stroke-width="1.34" opacity=".6"/><line x1="104.08" y1="13.85" x2="102.99" y2="16.82" stroke="#14171c" stroke-width="1.34" opacity=".6"/><line x1="115.20" y1="19.03" x2="113.62" y2="21.78" stroke="#14171c" stroke-width="1.34" opacity=".6"/><line x1="125.25" y1="26.07" x2="123.22" y2="28.50" stroke="#14171c" stroke-width="1.34" opacity=".6"/><line x1="133.93" y1="34.75" x2="131.50" y2="36.78" stroke="#14171c" stroke-width="1.34" opacity=".6"/><line x1="140.97" y1="44.80" x2="138.22" y2="46.38" stroke="#14171c" stroke-width="1.34" opacity=".6"/><line x1="146.15" y1="55.92" x2="143.18" y2="57.01" stroke="#14171c" stroke-width="1.34" opacity=".6"/><line x1="149.33" y1="67.78" x2="146.21" y2="68.33" stroke="#14171c" stroke-width="1.34" opacity=".6"/><line x1="80.93" y1="42.57" x2="80.08" y2="48.44" stroke="#14171c" stroke-width="1.92" stroke-linecap="round" opacity=".7"/><line x1="79.56" y1="67.03" x2="80.84" y2="81.46" stroke="#14171c" stroke-width="1.92" stroke-linecap="round" opacity=".7"/><line x1="81.64" y1="95.50" x2="82.26" y2="119.85" stroke="#14171c" stroke-width="1.92" stroke-linecap="round" opacity=".7"/><line x1="105.92" y1="59.20" x2="88.09" y2="58.22" stroke="#14171c" stroke-width="1.92" stroke-linecap="round" opacity=".7"/><line x1="69.49" y1="59.20" x2="54.55" y2="61.62" stroke="#14171c" stroke-width="1.92" stroke-linecap="round" opacity=".7"/><circle cx="82.47" cy="32.00" r="7.80" fill="#14171c"/><circle cx="78.73" cy="57.70" r="6.49" fill="#14171c"/><circle cx="45.65" cy="63.06" r="6.13" fill="#14171c"/><circle cx="114.35" cy="59.67" r="5.56" fill="#14171c"/><circle cx="81.47" cy="88.46" r="4.15" fill="#14171c"/><circle cx="82.47" cy="128.00" r="5.27" fill="#ffd8b9"/><circle cx="92.13" cy="127.42" r="3.09" fill="#c1d5ff"/></g><text x="176" y="98" font-family="'IBM Plex Sans','Segoe UI',system-ui,sans-serif" font-size="58" font-weight="500" letter-spacing="14" fill="#14171c">CYGNUS</text><text x="178" y="126" font-family="'IBM Plex Sans','Segoe UI',system-ui,sans-serif" font-size="15" letter-spacing="4.2" fill="#14171c" opacity=".6">ASTRONOMICAL DATA FORENSICS</text></svg>