<svg xmlns="http://www.w3.org/2000/svg" viewBox="0 0 512 512" role="img" aria-label="Cygnus mark: the Northern Cross badged, with a transit chord at 2.7 degrees (seed 20260924)"><title>Cygnus mark: the Northern Cross badged, with a transit chord at 2.7 degrees (seed 20260924)</title><defs><clipPath id="badge-20260924-14171c"><circle cx="256.0" cy="256.0" r="226.20"/></clipPath></defs><circle cx="256.0" cy="256.0" r="240.64" fill="#14171c"/><circle cx="256.0" cy="256.0" r="236.29" fill="none" stroke="#f4f2ee" stroke-width="8.70"/><circle cx="256.0" cy="256.0" r="216.58" fill="none" stroke="#f4f2ee" stroke-width="3.05" opacity=".35"/><g clip-path="url(#badge-20260924-14171c)"><line x1="258.98" y1="136.21" x2="256.25" y2="154.99" stroke="#f4f2ee" stroke-width="6.14" stroke-linecap="round" opacity=".7"/><line x1="254.60" y1="214.51" x2="258.70" y2="260.66" stroke="#f4f2ee" stroke-width="6.14" stroke-linecap="round" opacity=".7"/><line x1="261.26" y1="305.59" x2="263.23" y2="383.52" stroke="#f4f2ee" stroke-width="6.14" stroke-linecap="round" opacity=".7"/><line x1="338.93" y1="189.45" x2="281.88" y2="186.30" stroke="#f4f2ee" stroke-width="6.14" stroke-linecap="round" opacity=".7"/><line x1="222.36" y1="189.44" x2="174.55" y2="197.18" stroke="#f4f2ee" stroke-width="6.14" stroke-linecap="round" opacity=".7"/><circle cx="263.89" cy="102.40" r="24.95" fill="#f4f2ee"/><circle cx="251.95" cy="184.66" r="20.76" fill="#f4f2ee"/><circle cx="146.09" cy="201.78" r="19.61" fill="#f4f2ee"/><circle cx="365.91" cy="190.93" r="17.80" fill="#f4f2ee"/><circle cx="260.69" cy="283.08" r="13.29" fill="#f4f2ee"/><circle cx="263.89" cy="409.60" r="16.87" fill="#f4f2ee"/><circle cx="294.81" cy="407.76" r="9.88" fill="#f4f2ee"/><line x1="17.02" y1="296.90" x2="497.77" y2="274.23" stroke="#14171c" stroke-width="29.59"/><line x1="17.02" y1="296.90" x2="497.77" y2="274.23" stroke="#f4f2ee" stroke-width="8.70" stroke-linecap="round"/><circle cx="320.85" cy="282.57" r="45.36" fill="#14171c"/><circle cx="320.85" cy="282.57" r="29.70" fill="#14171c" stroke="#f4f2ee" stroke-width="9.57"/></g></svg>